#!OML:ASF H:\Terrain\Patient Classification 1\Animal2\Wednesday\Animal2.ASF
:FULLY-SPECIFIED
:DEGREES
1
root 17.1275 18.0757 7.97889 6.96021 1.07418 0.612227
lowerback 4.755 -2.6335 0.112917
upperback -2.94499 -3.55211 -0.668066
thorax -5.77225 -1.7759 -0.411723
lowerneck 7.98957 5.92634 14.6278
upperneck -34.8223 4.66381 -22.7
head -11.2822 3.02911 -12.2567
rclavicle 9.4547e-015 -5.96354e-016
rhumerus -48.0397 17.0478 -55.4782
rradius 139.692
rwrist 2.39002
rhand -19.8016 23.6344
rfingers 7.12502
rthumb 6.53132 -6.24493
lclavicle 9.4547e-015 -5.96354e-016
lhumerus -47.1233 -28.9366 42.5344
lradius 139.961
lwrist 21.602
lhand 1.57796 8.83978
lfingers 7.12502
lthumb 27.1009 36.9145
rfemur -9.60796 -1.68228 18.8671
rtibia 20.1418
rfoot -18.1362 6.12477
rtoes 31.3095
lfemur -8.95868 -1.77081 -20.9428
ltibia 17.3987
lfoot -14.7064 2.85111
ltoes -34.7228
2
root 17.123 18.086 7.97723 6.814 1.16741 0.701571
lowerback 5.05605 -2.63542 0.068556
upperback -3.00791 -3.5667 -0.789776
thorax -6.01644 -1.78288 -0.494823
lowerneck 7.94252 5.90087 14.8246
upperneck -34.4644 4.63769 -22.9059
head -11.1144 3.02528 -12.3243
rclavicle 5.37961e-014 0
rhumerus -46.48 13.6655 -52.6093
rradius 140.261
rwrist -0.0929176
rhand -20.2035 22.2807
rfingers 7.12502
rthumb 6.14333 -7.61022
lclavicle 5.37961e-014 0
lhumerus -45.0947 -26.6616 39.3567
lradius 140.079
lwrist 23.6122
lhand -2.2883 9.66571
lfingers 7.12502
lthumb 23.3969 38.2635
rfemur -9.43544 -1.39654 18.7983
rtibia 20.1159
rfoot -18.0473 5.68148
rtoes 31.2495
lfemur -8.80484 -1.85986 -21.0103
ltibia 17.4089
lfoot -14.6444 2.51332
ltoes -33.2374
3
root 17.1154 18.1033 7.98017 6.932 1.30674 0.465729
lowerback 5.08943 -2.64963 0.317913
upperback -3.24292 -3.56885 -0.774316
thorax -6.29844 -1.79398 -0.608928
lowerneck 8.1616 5.87038 14.8895
upperneck -34.1361 4.63451 -23.024
head -11.0231 3.04552 -12.3556
rclavicle -9.0447e-015 3.97569e-016
rhumerus -45.5016 10.553 -49.9989
rradius 140.81
rwrist -1.7695
rhand -20.7655 21.2668
rfingers 7.12502
rthumb 5.60075 -8.63917
lclavicle -9.0447e-015 3.97569e-016
lhumerus -43.2405 -24.5774 36.3718
lradius 140.206
lwrist 25.7262
lhand -5.91764 10.7647
lfingers 7.12502
lthumb 19.9115 39.7646
rfemur -9.55661 -1.31792 19.106
rtibia 20.1004
rfoot -17.9516 5.36306
rtoes 31.0988
lfemur -9.04356 -1.89077 -20.6914
ltibia 17.5778
lfoot -14.7104 2.19666
ltoes -32.1195
4
root 17.1133 18.1269 7.98734 7.22075 1.46104 0.14348
lowerback 4.77093 -2.65076 0.718421
upperback -3.45582 -3.53996 -0.734818
thorax -6.36271 -1.79772 -0.803522
lowerneck 8.33764 5.88826 14.8235
upperneck -33.8052 4.69722 -23.0485
head -10.9166 3.10181 -12.3168
rclavicle 1.09083e-014 -3.97569e-015
rhumerus -44.8905 7.89405 -47.6288
rradius 141.378
rwrist -2.94175
rhand -21.5262 20.6427
rfingers 7.12502
rthumb 4.86632 -9.28146
lclavicle 1.09083e-014 -3.97569e-015
lhumerus -41.4643 -22.5044 33.5756
lradius 140.226
lwrist 27.97
lhand -8.72702 11.9454
lfingers 7.12502
lthumb 17.2092 41.2034
rfemur -9.83568 -1.44156 19.4712
rtibia 20.109
rfoot -17.9192 5.40527
rtoes 31.2092
lfemur -9.47375 -1.95047 -20.2843
ltibia 17.7479
lfoot -14.7385 1.93666
ltoes -31.3268
5
root 17.1164 18.1422 7.9974 7.66896 1.5414 -0.107243
lowerback 4.20257 -2.63467 1.09357
upperback -3.61133 -3.49543 -0.732721
thorax -6.22288 -1.79415 -1.0381
lowerneck 8.27283 5.93219 14.8665
upperneck -33.3915 4.77627 -23.1542
head -10.7128 3.15583 -12.3019
rclavicle 4.70747e-014 1.43125e-014
rhumerus -44.1147 5.66379 -45.5976
rradius 141.779
rwrist -2.98087
rhand -22.1378 20.0577
rfingers 7.12502
rthumb 4.27574 -9.87911
lclavicle 4.70747e-014 1.43125e-014
lhumerus -39.999 -20.5787 31.3124
lradius 140.101
lwrist 29.9559
lhand -10.9766 12.3769
lfingers 7.12502
lthumb 15.043 41.8104
rfemur -10.3189 -1.55307 19.7276
rtibia 20.2254
rfoot -17.6835 5.6353
rtoes 31.3944
lfemur -9.98973 -2.04263 -19.9785
ltibia 17.833
lfoot -14.5184 1.67112
ltoes -29.8296
6
root 17.1201 18.1551 8.00926 8.1718 1.53553 -0.033872
lowerback 3.59788 -2.63633 1.07134
upperback -3.69452 -3.50796 -0.801759
thorax -5.967 -1.80231 -1.12327
lowerneck 7.85479 5.98295 15.0143
upperneck -32.9145 4.82198 -23.3452
head -10.41 3.17895 -12.3059
rclavicle 4.22666e-014 1.19271e-014
rhumerus -43.3541 4.02933 -44.1184
rradius 141.902
rwrist -1.88201
rhand -22.6534 19.9783
rfingers 7.12502
rthumb 3.77783 -9.96796
lclavicle 4.22666e-014 1.19271e-014
lhumerus -39.0095 -19.026 29.62
lradius 140.14
lwrist 31.2911
lhand -12.8738 12.6437
lfingers 7.12502
lthumb 13.2149 42.2048
rfemur -10.9228 -1.72117 19.6098
rtibia 20.4056
rfoot -17.1626 5.93454
rtoes 30.6129
lfemur -10.4923 -2.07137 -20.0611
ltibia 17.8033
lfoot -14.1384 1.57017
ltoes -29.3198
7
root 17.1237 18.1818 8.0246 8.64993 1.57812 0.162556
lowerback 2.96664 -2.65399 0.909904
upperback -3.77918 -3.54907 -0.870245
thorax -5.6899 -1.81863 -1.12944
lowerneck 7.60178 5.96293 15.0821
upperneck -32.5931 4.75956 -23.5086
head -10.2375 3.15715 -12.3211
rclavicle 3.01904e-014 0
rhumerus -43.0173 3.30549 -43.2138
rradius 141.932
rwrist -0.529861
rhand -22.822 20.4442
rfingers 7.12502
rthumb 3.61498 -9.50489
lclavicle 3.01904e-014 0
lhumerus -38.475 -18.1344 28.4837
lradius 140.332
lwrist 31.8622
lhand -13.8802 12.6088
lfingers 7.12502
lthumb 12.2446 42.2303
rfemur -11.5372 -2.1783 19.3608
rtibia 20.5595
rfoot -16.6203 6.34046
rtoes 30.0931
lfemur -10.9754 -2.11544 -20.2825
ltibia 17.7815
lfoot -13.7977 1.6418
ltoes -30.4531
8
root 17.1253 18.216 8.0413 9.04493 1.62421 0.211781
lowerback 2.49932 -2.66252 0.921002
upperback -3.96119 -3.56458 -0.88995
thorax -5.61645 -1.82914 -1.17278
lowerneck 7.63022 5.94246 15.1098
upperneck -32.3766 4.71943 -23.6615
head -10.1619 3.1566 -12.3629
rclavicle -2.2736e-015 -2.78299e-015
rhumerus -43.1685 3.75809 -43.0715
rradius 142.133
rwrist 0.807761
rhand -22.1832 20.6849
rfingers 7.12502
rthumb 4.23187 -9.25277
lclavicle -2.2736e-015 -2.78299e-015
lhumerus -38.4737 -18.1053 28.1287
lradius 140.561
lwrist 31.7133
lhand -14.0027 12.1109
lfingers 7.12502
lthumb 12.1265 41.7395
rfemur -12.0274 -2.49513 19.2922
rtibia 20.6797
rfoot -16.1916 6.62109
rtoes 30.5622
lfemur -11.3513 -2.2906 -20.3205
ltibia 17.7268
lfoot -13.3902 1.68626
ltoes -30.6258
9
root 17.1238 18.2409 8.05364 9.33795 1.60378 0.109684
lowerback 2.30753 -2.6716 0.988954
upperback -4.16981 -3.57308 -0.830357
thorax -5.72699 -1.8368 -1.15186
lowerneck 7.43325 6.06135 15.0677
upperneck -32.0003 4.88035 -23.7355
head -9.93584 3.24644 -12.314
rclavicle 3.42407e-014 -1.98785e-015
rhumerus -43.5631 5.33521 -43.7564
rradius 142.409
rwrist 2.04796
rhand -21.4278 20.422
rfingers 7.12502
rthumb 4.96132 -9.49996
lclavicle 3.42407e-014 -1.98785e-015
lhumerus -39.0919 -18.929 28.7103
lradius 140.95
lwrist 30.7005
lhand -13.8191 11.8788
lfingers 7.12502
lthumb 12.3035 41.4968
rfemur -12.3288 -2.41128 19.4038
rtibia 20.7709
rfoot -15.8055 6.47283
rtoes 30.0941
lfemur -11.6128 -2.44342 -20.1803
ltibia 17.6187
lfoot -12.8647 1.66476
ltoes -29.4206
